<?xml version="1.0" encoding="utf-8"?>
<!-- Generator: Adobe Illustrator 23.1.0, SVG Export Plug-In . SVG Version: 6.00 Build 0)  -->
<svg version="1.1" id="Resize-En" xmlns="http://www.w3.org/2000/svg" xmlns:xlink="http://www.w3.org/1999/xlink" x="0px" y="0px"
	 viewBox="0 0 150 56" style="enable-background:new 0 0 150 56;" xml:space="preserve">
<style type="text/css">
	.st0{opacity:0.85;}
	.st1{fill:#FFFFFF;}
	.st2{opacity:0.9;}
	.st3{fill:#FFFFFF;stroke:#FFFFFF;stroke-width:0.5;stroke-miterlimit:10;}
	.st4{fill:none;stroke:#FFFFFF;stroke-width:0.5;stroke-miterlimit:10;}
	.st5{fill:#F9ED32;stroke:#F9ED32;stroke-width:0.5;stroke-miterlimit:10;}
	.st6{fill:none;stroke:url(#SVGID_1_);stroke-width:0.7;stroke-miterlimit:10;}
	.st7{fill:none;stroke:url(#SVGID_2_);stroke-width:0.4;stroke-miterlimit:10;}
	.st8{fill:#FFF200;}
</style>
<title>resize-En</title>
<g id="white_hand" class="st0">
	<path id="_Path_" class="st1" d="M46.5,44.7h0.2c0.1,0,0.2,0.1,0.3,0.1C46.8,44.8,46.6,44.7,46.5,44.7z"/>
	<path id="_Path_3" class="st1" d="M29.3,9L29.3,9c0,0.2-0.1,0.4-0.2,0.6c0,0,0,0.1-0.1,0.1c0,0,0,0,0,0h0c0,0.1-4.7,4-5.9,5
		l-0.9-0.5l0,0c-1.8-1-3.6-2.6-3.9-5.2c3.4-1.2,4.8-1.7,9.3-3.3C28.9,6.3,29.6,7.7,29.3,9z"/>
	<path id="_Path_4" class="st1" d="M37,9.1l-0.4,0.4l0,0c0,0-0.1,0-0.1,0.1l0,0v0c-0.3,0.2-0.5,0.4-0.8,0.6c-1.4,0.8-3,0.9-4.5,0.5
		c-0.6-0.2-1.1-0.4-1.7-0.7c0.6-1.5,0.9-2.5-0.6-4.4c0,0,4.6,2.8,8.9,1.7C37.8,7.8,37.5,8.5,37,9.1z"/>
	<path id="_Path_5" class="st1" d="M32.3,44c1.1-0.9,2.1-1.9,2.9-3.1c0.8,0.7,1.6,1.4,2.3,2.1c-1.2,0.4-2.2,1.2-2.9,2.3l0,0
		C33.8,44.9,33,44.5,32.3,44z"/>
	<path id="_Compound_Path_" class="st1" d="M42.7,42.9L42.7,42.9c0.2-0.8,1-2.7,2.2-2.6c0,0,0.7,0.6,1.5,1.2
		c0.6,0.5,0.9,0.8,1.2,1.1l0,0l0.2,0.2l0,0c0.5,0.6,0.6,1.2,0.3,1.6c-0.2,0.3-0.5,0.4-0.8,0.4C46,45.1,43.3,43.5,42.7,42.9z
		 M46.5,44.7c0.1,0.1,0.2,0.1,0.4,0.1C46.8,44.8,46.7,44.7,46.5,44.7L46.5,44.7z M46.9,44.8L46.9,44.8C47,44.9,46.9,44.9,46.9,44.8
		L46.9,44.8z"/>
	<path id="_Path_6" class="st1" d="M48.6,38c0.6-1.5,0.8-1.8,1.3-2.1c0.4-0.2,0.8-0.4,1.3-0.6l1.1,1.1c0.4,0.3,0.7,0.7,1,1.1
		c0.6,0.7,0.9,1.7,0.5,2.2c-0.2,0.3-0.5,0.5-0.8,0.5h-0.5c-0.2,0-0.4-0.1-0.6-0.2h-0.1C50.6,39.5,49.5,38.9,48.6,38z"/>
	<path id="_Path_7" class="st1" d="M51.4,29.1L51.4,29.1c-4.5-0.4-5.6-1.3-5.7-1.4l0.2-0.6c0.4-1.5,1-3.9,1-3.9s1.4,0.6,2.7,1.1
		c0.9,0.3,1.8,0.8,2.7,1.3c-0.4,0.5-0.6,1.1-0.7,1.7C51.4,28.2,51.4,29.1,51.4,29.1z"/>
	<path id="_Path_8" class="st1" d="M45.2,27.5L45.2,27.5c-1.7,0.3-3.5,0.4-5.4,0.3v-0.2c0.3-1.9,0.2-3.8-0.2-5.6
		c0,0,0.8,0.1,2.7,0.5c1.2,0.1,2.4,0.4,3.6,0.7L45.2,27.5C45.3,27.5,45.3,27.5,45.2,27.5z"/>
	<path id="_Path_9" class="st1" d="M19.8,22.7c-1.3,0.9-3,1.2-4.5,0.9c-2.2-0.3-3.9-1.9-4.5-4.1c-0.4-1.6-0.1-3.4,0.8-4.8l3.5-2.9
		c0.6-0.5,2.2-1.9,3-2.4c-0.2,2,0.5,5.2,5,6.3v0.7c-0.2,1.1-0.4,2.2-0.8,3.3C21.6,21,20.8,21.9,19.8,22.7z"/>
	<path id="_Path_10" class="st1" d="M37.7,47.9c0-0.2,0-0.4,0.1-0.6l0,0c0.3-1,1.1-1.6,2.1-1.8c0.6,0.3,1.2,0.7,1.7,1.1
		c0.6,0.7,0.8,1.4,0.6,2c-0.4,0.3-0.8,0.5-1.3,0.6c-0.3,0.1-0.7,0-1-0.1c-0.2-0.1-0.5-0.2-0.7-0.3c-0.5-0.2-0.9-0.5-1.3-0.8h-0.1
		V47.9z"/>
	<path id="_Path_11" class="st1" d="M35.5,45.3c0.2-0.3,0.5-0.6,0.7-0.9c0.4-0.4,0.9-0.8,1.5-1.1c0,0,0.8,0.9,1.5,1.6
		c-1.1,0.2-2.1,1-2.4,2.1l0,0l-0.1,0.4c-0.6-0.5-1.1-1.1-1.6-1.8L35.5,45.3z"/>
	<path id="_Path_12" class="st1" d="M40.4,41.5l0.1-0.7l0,0c0.1-0.4,0.3-0.8,0.5-1.1c0.4-0.6,0.9-1,1.5-1.4c0,0,0.8,0.6,1.7,1.2
		c-0.5,0.3-0.9,0.7-1.2,1.1c-0.3,0.5-0.5,1.1-0.5,1.8l0,0v0.4l-0.1-0.1C41.7,42.2,41,41.9,40.4,41.5z"/>
	<path id="_Path_13" class="st1" d="M45.7,36.3l0.1-0.7l0,0c0.1-0.4,0.2-0.8,0.4-1.2c0.3-0.6,0.7-1.2,1.1-1.8c0,0,1.2,0.7,2.3,1.6
		c0.2,0.2,0.3,0.2,0.6,0.6c-1.3,0.4-2.3,1.6-2.4,3l0,0C47.1,37.3,46.4,36.8,45.7,36.3z"/>
	<path id="_Path_14" class="st1" d="M36.4,38.7c0.7-1.3,1.3-2.7,1.8-4.2c1.2,1.2,2.5,2.3,3.9,3.2c-0.7,0.5-1.2,1.1-1.8,1.8
		c-0.3,0.4-0.5,0.8-0.6,1.2l0,0c-0.1,0-0.1,0-0.2-0.1c-1.1-0.4-2.1-0.8-3-1.4c-0.1,0-0.2-0.1-0.3-0.2l0,0L36.4,38.7z"/>
	<path id="_Path_15" class="st1" d="M38.6,33.3c0.5-1.6,1-4.2,1-4.2s1.8,0.6,3.5,1.5c1.2,0.5,2.4,1,3.5,1.7c-0.4,0.5-0.8,1.1-1,1.7
		c-0.2,0.6-0.4,1.3-0.5,1.9H45c-2.3-0.3-4.6-0.8-6.8-1.7C38.3,33.9,38.5,33.6,38.6,33.3z"/>
	<path id="_Path_16" class="st1" d="M52,29.3V29c0-0.5,0.1-0.9,0.3-1.4c0.2-0.5,0.5-1,0.8-1.5c0,0,1,0.5,2,1
		c0.6,0.4,1.4,0.7,1.8,0.9c1.2,0.6,1.8,1.6,1.7,2.2c-0.2,0.4-0.5,0.6-0.9,0.6h0.2C56.6,31.1,52.6,29.9,52,29.3z"/>
	<path id="_Path_17" class="st1" d="M10.3,21.1l0.4,0.6l-1.4,4.3c1.6,2.1,3.8,3.7,6.4,4.3v0.5c-2.6-0.3-5-1.5-6.8-3.4l-1.6,5
		c1.3,3.5,6.1,11,19.8,9.2c-0.9,0.3-1.8,0.6-2.8,0.7c1.5,1,3.2,1.5,5,1.5c0.9-0.1,3.9-0.4,7.7-10.2l0,0c2.3-7.7,1.3-12.2-0.4-12.7
		l0,0c-0.2-0.1-0.4-0.2-0.6-0.3c-2.1-0.9-4.3-1.5-6.5-1.8c1.4,0.7,2.6,1.7,3.7,2.9c-1-0.8-2.1-1.5-3.2-1.9c-2-0.9-4.1-1.7-6.3-2.3
		c0-0.2,0-0.5,0.1-0.7c0-0.3,0.1-0.6,0.1-0.8c1.9,0.8,3.7,1.7,5.4,2.8c2.7,0,5.4,0.5,7.8,1.7l0,0c0.4,0.2,0.7,0.5,0.9,0.8
		c2.4,3.5,0.3,10.9-0.4,12.7l0,0c-0.6,1.9-3.4,9.2-7.4,10.6c-0.4,0.2-0.9,0.2-1.3,0.2l0,0c-1.8,0-3.6-0.8-4.8-2.1
		C17,43.6,7.9,40.6,6.6,32.4c0-0.2,0-0.5-0.1-0.7L10,20.6L10.3,21.1z"/>
	<polygon id="_Path_18" class="st1" points="2.5,17.1 6.6,18.6 5.1,35.5 0.6,35.8 	"/>
</g>
<g class="st2">
	<circle class="st3" cx="65.3" cy="20.9" r="2"/>
	<circle class="st3" cx="40.6" cy="8.1" r="1.1"/>
	<line class="st4" x1="40.6" y1="8.1" x2="65.7" y2="21.2"/>
</g>
<g class="st2">
	<circle class="st5" cx="65.3" cy="40.7" r="2.1"/>
	
		<linearGradient id="SVGID_1_" gradientUnits="userSpaceOnUse" x1="-5093.2832" y1="353.1788" x2="-5053.4048" y2="353.1788" gradientTransform="matrix(-0.5144 0 0 1 -2555.1018 -307.4669)">
		<stop  offset="0" style="stop-color:#F9ED32"/>
		<stop  offset="0.1079" style="stop-color:#F9EE38"/>
		<stop  offset="0.2509" style="stop-color:#FAEF49"/>
		<stop  offset="0.4135" style="stop-color:#FAF164"/>
		<stop  offset="0.5908" style="stop-color:#FCF58B"/>
		<stop  offset="0.7799" style="stop-color:#FDF9BC"/>
		<stop  offset="0.9762" style="stop-color:#FFFEF7"/>
		<stop  offset="1" style="stop-color:#FFFFFF"/>
	</linearGradient>
	<line class="st6" x1="44.4" y1="50.7" x2="64.8" y2="40.7"/>
	<circle class="st3" cx="44.4" cy="50.7" r="1.1"/>
</g>
<g class="st2">
	<circle class="st3" cx="65.3" cy="30.9" r="1.5"/>
	
		<linearGradient id="SVGID_2_" gradientUnits="userSpaceOnUse" x1="-869.4173" y1="337.2863" x2="-752.5077" y2="337.2863" gradientTransform="matrix(1.0362 8.220000e-03 -8.220000e-03 1 936.6252 -299.7251)">
		<stop  offset="0.255" style="stop-color:#FFFFFF"/>
		<stop  offset="0.541" style="stop-color:#FDFEFF;stop-opacity:0.616"/>
		<stop  offset="0.644" style="stop-color:#F6FAFD;stop-opacity:0.477"/>
		<stop  offset="0.718" style="stop-color:#EAF3FA;stop-opacity:0.379"/>
		<stop  offset="0.777" style="stop-color:#DAEAF5;stop-opacity:0.299"/>
		<stop  offset="0.828" style="stop-color:#C4DEF0;stop-opacity:0.231"/>
		<stop  offset="0.873" style="stop-color:#A8CEE8;stop-opacity:0.17"/>
		<stop  offset="0.914" style="stop-color:#88BCE0;stop-opacity:0.115"/>
		<stop  offset="1" style="stop-color:#2484C6;stop-opacity:0"/>
	</linearGradient>
	<path class="st7" d="M129.8,30.9H65.5"/>
</g>
<g id="_x35_0-30-h6">
	<path class="st8" d="M73.2,36.9c0.2,2.3,0.4,3.6,0.4,4.3h0c0.3-0.8,0.9-2,2-4.3h1.5l-3,5.7h-1.6l-0.8-5.7H73.2z"/>
	<path class="st8" d="M80.7,39.2l-0.3,1.3h-2.9l0.3-1.3H80.7z"/>
	<path class="st8" d="M86.6,41.1c-0.1,0.5-0.2,1.1-0.3,1.5H85c0-0.2,0.1-0.5,0.1-0.8c-0.4,0.5-0.8,0.9-1.7,0.9c-1,0-1.6-0.7-1.4-2.2
		l0.7-3.7h1.4l-0.7,3.5c-0.1,0.7-0.1,1.1,0.6,1.1c0.7,0,1.2-0.6,1.4-1.9l0.5-2.7h1.4L86.6,41.1z"/>
	<path class="st8" d="M89.1,40.9c0,0.5,0.4,0.8,1,0.8c0.5,0,0.8-0.2,0.8-0.6c0-0.4-0.3-0.5-1-0.8c-1.3-0.4-1.7-0.9-1.7-1.6
		c0-1,0.8-1.9,2.2-1.9c1.6,0,2.2,1,2.2,1.8h-1.4c0-0.3-0.2-0.7-0.8-0.7c-0.3,0-0.7,0.1-0.7,0.5c0,0.3,0.3,0.4,1,0.7
		c1.3,0.4,1.8,0.9,1.8,1.8c0,1.3-1,1.9-2.4,1.9c-1.4,0-2.3-0.7-2.3-1.9H89.1z"/>
	<path class="st8" d="M94.5,40.2c0,0.1,0,0.2,0,0.3c0,0.6,0.3,1.2,0.9,1.2c0.6,0,0.8-0.3,1-0.6H98c-0.3,0.9-1,1.9-2.6,1.9
		c-1.5,0-2.2-1.1-2.2-2.5c0-1.5,0.8-3.5,3-3.5c1.6,0,2.2,1.1,2.2,2.3c0,0.4,0,0.7-0.1,1.1H94.5z M96.9,39.1c0-0.1,0-0.1,0-0.2
		c0-0.6-0.3-1-0.9-1c-0.7,0-1.1,0.5-1.3,1.2H96.9z"/>
	<path class="st8" d="M99.5,38.6c0.1-0.6,0.2-1.2,0.3-1.7h1.4c0,0.2-0.1,0.6-0.2,1.1c0.4-0.8,0.9-1.2,1.8-1.2l-0.3,1.6
		c-1,0-1.7,0.6-2,2l-0.4,2.3h-1.4L99.5,38.6z"/>
	<path class="st8" d="M102.4,42.7l0.4-2h1.6l-0.4,2H102.4z"/>
	<path class="st8" d="M110.4,40.8c-0.3,1.2-1.1,2.1-2.7,2.1c-1.5,0-2.2-1-2.2-2.3c0-1.7,0.9-3.7,2.9-3.7c1.8,0,2.2,1.4,2.2,2.1h-1.4
		c0-0.4-0.2-0.9-0.8-0.9c-1,0-1.4,1.4-1.4,2.4c0,0.8,0.3,1.2,0.9,1.2c0.5,0,0.8-0.3,1.1-0.9H110.4z"/>
	<path class="st8" d="M116.5,39.3c0,1.5-0.8,3.5-3,3.5c-1.6,0-2.3-1.1-2.3-2.5c0-1.7,1-3.5,3-3.5C115.6,36.8,116.5,37.7,116.5,39.3z
		 M112.7,40.3c0,0.8,0.3,1.3,0.9,1.3c1,0,1.4-1.3,1.4-2.3c0-0.8-0.3-1.2-1-1.2C113.1,38,112.7,39.3,112.7,40.3z"/>
	<path class="st8" d="M117.8,38.6c0.1-0.5,0.2-1.1,0.3-1.6h1.4c0,0.1,0,0.4-0.1,0.7c0.3-0.5,0.8-0.8,1.5-0.8c0.8,0,1.1,0.4,1.2,0.9
		c0.4-0.5,0.9-0.9,1.8-0.9c1,0,1.6,0.7,1.3,2.2l-0.7,3.6h-1.4l0.7-3.4c0.1-0.5,0.1-1.1-0.6-1.1c-0.6,0-1,0.5-1.1,1.4l-0.6,3.2h-1.4
		l0.7-3.5c0.1-0.6,0.1-1.1-0.6-1.1c-0.6,0-1,0.6-1.2,1.5l-0.6,3.1H117L117.8,38.6z"/>
</g>
<g>
	<path class="st1" d="M70.6,16.6l2.3,6.7H73l2.3-6.7h1.3l-3,8.3h-1.4l-3-8.3H70.6z"/>
	<path class="st1" d="M78.4,17.7c-0.2,0-0.4-0.1-0.5-0.2s-0.2-0.3-0.2-0.5c0-0.2,0.1-0.4,0.2-0.5s0.3-0.2,0.5-0.2
		c0.2,0,0.4,0.1,0.5,0.2s0.2,0.3,0.2,0.5c0,0.2-0.1,0.4-0.2,0.5S78.6,17.7,78.4,17.7z M77.8,24.9v-6.2H79v6.2H77.8z"/>
	<path class="st1" d="M80.7,24.9v-6.2h1.2v1h0.1c0.1-0.3,0.3-0.6,0.6-0.8c0.3-0.2,0.6-0.3,1-0.3c0.1,0,0.2,0,0.3,0
		c0.1,0,0.2,0,0.2,0v1.2c0,0-0.1,0-0.3,0s-0.2,0-0.4,0c-0.3,0-0.5,0.1-0.8,0.2c-0.2,0.1-0.4,0.3-0.5,0.5s-0.2,0.5-0.2,0.7v3.8H80.7z
		"/>
	<path class="st1" d="M88.3,18.7v1H85v-1H88.3z M85.9,17.2h1.2v5.9c0,0.2,0,0.4,0.1,0.5c0.1,0.1,0.2,0.2,0.3,0.2
		c0.1,0,0.2,0.1,0.4,0.1c0.1,0,0.2,0,0.3,0c0.1,0,0.1,0,0.2,0l0.2,1c-0.1,0-0.2,0.1-0.3,0.1s-0.3,0-0.5,0c-0.3,0-0.6-0.1-0.9-0.2
		c-0.3-0.1-0.5-0.3-0.7-0.5c-0.2-0.2-0.3-0.6-0.3-0.9V17.2z"/>
	<path class="st1" d="M93.7,22.3v-3.6h1.2v6.2h-1.2v-1.1h-0.1c-0.1,0.3-0.4,0.6-0.7,0.8c-0.3,0.2-0.7,0.3-1.2,0.3
		c-0.4,0-0.7-0.1-1.1-0.3c-0.3-0.2-0.5-0.4-0.7-0.8c-0.2-0.3-0.3-0.8-0.3-1.3v-3.9h1.2v3.8c0,0.4,0.1,0.8,0.4,1
		c0.2,0.3,0.5,0.4,0.9,0.4c0.2,0,0.5-0.1,0.7-0.2c0.2-0.1,0.4-0.3,0.6-0.5C93.6,23,93.7,22.7,93.7,22.3z"/>
	<path class="st1" d="M98.3,25c-0.4,0-0.7-0.1-1.1-0.2s-0.6-0.4-0.8-0.6c-0.2-0.3-0.3-0.6-0.3-1c0-0.3,0.1-0.6,0.2-0.9
		c0.1-0.2,0.3-0.4,0.5-0.5c0.2-0.1,0.5-0.2,0.8-0.3c0.3-0.1,0.6-0.1,0.9-0.2c0.4,0,0.7-0.1,0.9-0.1c0.2,0,0.4-0.1,0.5-0.1
		c0.1-0.1,0.2-0.2,0.2-0.3v0c0-0.4-0.1-0.6-0.3-0.8c-0.2-0.2-0.5-0.3-0.9-0.3c-0.4,0-0.7,0.1-1,0.3c-0.2,0.2-0.4,0.4-0.5,0.6
		l-1.1-0.3c0.1-0.4,0.3-0.7,0.6-0.9s0.6-0.4,0.9-0.5c0.3-0.1,0.7-0.2,1.1-0.2c0.2,0,0.5,0,0.8,0.1c0.3,0.1,0.5,0.2,0.8,0.3
		c0.2,0.2,0.4,0.4,0.6,0.7c0.2,0.3,0.2,0.7,0.2,1.1v4.1h-1.2V24h0c-0.1,0.2-0.2,0.3-0.4,0.5c-0.2,0.2-0.4,0.3-0.6,0.4
		C99,25,98.7,25,98.3,25z M98.6,24.1c0.3,0,0.6-0.1,0.9-0.2c0.2-0.1,0.4-0.3,0.5-0.5c0.1-0.2,0.2-0.4,0.2-0.7v-0.8
		c0,0-0.1,0.1-0.2,0.1s-0.3,0.1-0.4,0.1c-0.2,0-0.3,0-0.5,0.1c-0.1,0-0.3,0-0.4,0.1c-0.2,0-0.4,0.1-0.6,0.1
		c-0.2,0.1-0.3,0.2-0.5,0.3s-0.2,0.3-0.2,0.5c0,0.3,0.1,0.5,0.3,0.7S98.3,24.1,98.6,24.1z"/>
	<path class="st1" d="M104.3,16.6v8.3h-1.2v-8.3H104.3z"/>
	<path class="st1" d="M114.4,16.6h1.3v5.4c0,0.6-0.1,1.1-0.4,1.5c-0.3,0.4-0.7,0.8-1.1,1c-0.5,0.3-1.1,0.4-1.7,0.4
		c-0.7,0-1.2-0.1-1.7-0.4c-0.5-0.3-0.9-0.6-1.1-1c-0.3-0.4-0.4-1-0.4-1.5v-5.4h1.2V22c0,0.4,0.1,0.7,0.2,1s0.4,0.5,0.7,0.7
		c0.3,0.2,0.7,0.2,1.1,0.2c0.4,0,0.8-0.1,1.1-0.2c0.3-0.2,0.5-0.4,0.7-0.7c0.2-0.3,0.2-0.6,0.2-1V16.6z"/>
	<path class="st1" d="M122.1,20.2l-1.1,0.2c0-0.1-0.1-0.3-0.2-0.4c-0.1-0.1-0.2-0.2-0.4-0.3c-0.2-0.1-0.4-0.1-0.6-0.1
		c-0.3,0-0.6,0.1-0.9,0.2c-0.2,0.2-0.3,0.3-0.3,0.6c0,0.2,0.1,0.4,0.2,0.5c0.2,0.1,0.4,0.2,0.7,0.3l1,0.2c0.6,0.1,1,0.3,1.3,0.6
		c0.3,0.3,0.4,0.6,0.4,1.1c0,0.4-0.1,0.7-0.3,1c-0.2,0.3-0.5,0.5-0.9,0.7c-0.4,0.2-0.8,0.2-1.3,0.2c-0.7,0-1.3-0.1-1.7-0.4
		c-0.4-0.3-0.7-0.7-0.8-1.3l1.2-0.2c0.1,0.3,0.2,0.5,0.4,0.7s0.5,0.2,0.9,0.2c0.4,0,0.7-0.1,0.9-0.2c0.2-0.2,0.4-0.4,0.4-0.6
		c0-0.2-0.1-0.4-0.2-0.5c-0.1-0.1-0.4-0.2-0.7-0.3l-1-0.2c-0.6-0.1-1-0.3-1.3-0.6s-0.4-0.7-0.4-1.1c0-0.4,0.1-0.7,0.3-1
		s0.5-0.5,0.8-0.6c0.4-0.2,0.8-0.2,1.2-0.2c0.7,0,1.2,0.1,1.6,0.4C121.7,19.3,122,19.7,122.1,20.2z"/>
	<path class="st1" d="M126.3,25c-0.6,0-1.1-0.1-1.6-0.4c-0.4-0.3-0.8-0.6-1-1.1c-0.2-0.5-0.4-1-0.4-1.7c0-0.6,0.1-1.2,0.4-1.7
		c0.2-0.5,0.6-0.9,1-1.1c0.4-0.3,0.9-0.4,1.5-0.4c0.3,0,0.7,0.1,1,0.2c0.3,0.1,0.6,0.3,0.9,0.5c0.3,0.2,0.5,0.6,0.6,1
		c0.2,0.4,0.2,0.9,0.2,1.4v0.4H124v-0.9h3.7c0-0.3-0.1-0.6-0.2-0.8c-0.1-0.2-0.3-0.4-0.5-0.6c-0.2-0.1-0.5-0.2-0.8-0.2
		c-0.3,0-0.6,0.1-0.9,0.2c-0.3,0.2-0.4,0.4-0.6,0.6s-0.2,0.6-0.2,0.9v0.7c0,0.4,0.1,0.8,0.2,1.1c0.1,0.3,0.4,0.5,0.6,0.7
		s0.6,0.2,0.9,0.2c0.2,0,0.4,0,0.6-0.1s0.4-0.2,0.5-0.3c0.1-0.1,0.2-0.3,0.3-0.5l1.1,0.2c-0.1,0.3-0.3,0.6-0.5,0.9
		c-0.2,0.3-0.5,0.4-0.9,0.6C127.2,24.9,126.8,25,126.3,25z"/>
	<path class="st1" d="M130.4,24.9v-6.2h1.2v1h0.1c0.1-0.3,0.3-0.6,0.6-0.8c0.3-0.2,0.6-0.3,1-0.3c0.1,0,0.2,0,0.3,0
		c0.1,0,0.2,0,0.2,0v1.2c0,0-0.1,0-0.3,0s-0.2,0-0.4,0c-0.3,0-0.5,0.1-0.8,0.2c-0.2,0.1-0.4,0.3-0.5,0.5s-0.2,0.5-0.2,0.7v3.8H130.4
		z"/>
</g>
</svg>
